<?xml version="1.0" encoding="UTF-8" standalone="no"?>
<!-- Created with Inkscape (http://www.inkscape.org/) -->

<svg
   xmlns:dc="http://purl.org/dc/elements/1.1/"
   xmlns:cc="http://creativecommons.org/ns#"
   xmlns:rdf="http://www.w3.org/1999/02/22-rdf-syntax-ns#"
   xmlns:svg="http://www.w3.org/2000/svg"
   xmlns="http://www.w3.org/2000/svg"
   xmlns:sodipodi="http://sodipodi.sourceforge.net/DTD/sodipodi-0.dtd"
   xmlns:inkscape="http://www.inkscape.org/namespaces/inkscape"
   width="196.875"
   height="33.409382"
   id="svg2"
   version="1.1"
   inkscape:version="0.47 r22583"
   sodipodi:docname="New document 1">
  <defs
     id="defs4">
    <inkscape:perspective
       sodipodi:type="inkscape:persp3d"
       inkscape:vp_x="0 : 526.18109 : 1"
       inkscape:vp_y="0 : 1000 : 0"
       inkscape:vp_z="744.09448 : 526.18109 : 1"
       inkscape:persp3d-origin="372.04724 : 350.78739 : 1"
       id="perspective10" />
    <clipPath
       id="clipPath4906"
       clipPathUnits="userSpaceOnUse">
      <path
         id="path4908"
         d="M 0,0 720,0 720,468 0,468 0,0 z" />
    </clipPath>
    <clipPath
       id="clipPath4806"
       clipPathUnits="userSpaceOnUse">
      <path
         id="path4808"
         d="M 0,0 720,0 720,468 0,468 0,0 z" />
    </clipPath>
    <clipPath
       id="clipPath4794"
       clipPathUnits="userSpaceOnUse">
      <path
         id="path4796"
         d="m 422.91,246.792 243.455,0 0,-153.303 -243.455,0 0,153.303 z" />
    </clipPath>
    <clipPath
       id="clipPath4770"
       clipPathUnits="userSpaceOnUse">
      <path
         id="path4772"
         d="M 0,0 720,0 720,468 0,468 0,0 z" />
    </clipPath>
    <clipPath
       id="clipPath4754"
       clipPathUnits="userSpaceOnUse">
      <path
         id="path4756"
         d="M 0,0 720,0 720,468 0,468 0,0 z" />
    </clipPath>
    <clipPath
       id="clipPath4714"
       clipPathUnits="userSpaceOnUse">
      <path
         id="path4716"
         d="M 0,0 720,0 720,468 0,468 0,0 z" />
    </clipPath>
    <clipPath
       id="clipPath4698"
       clipPathUnits="userSpaceOnUse">
      <path
         id="path4700"
         d="M 0,0 720,0 720,468 0,468 0,0 z" />
    </clipPath>
    <clipPath
       id="clipPath4662"
       clipPathUnits="userSpaceOnUse">
      <path
         id="path4664"
         d="M 0,0 720,0 720,468 0,468 0,0 z" />
    </clipPath>
    <clipPath
       id="clipPath4638"
       clipPathUnits="userSpaceOnUse">
      <path
         id="path4640"
         d="M 0,0 720,0 720,468 0,468 0,0 z" />
    </clipPath>
    <clipPath
       id="clipPath4614"
       clipPathUnits="userSpaceOnUse">
      <path
         id="path4616"
         d="M 0,0 720,0 720,468 0,468 0,0 z" />
    </clipPath>
    <clipPath
       id="clipPath4582"
       clipPathUnits="userSpaceOnUse">
      <path
         id="path4584"
         d="M 0,0 720,0 720,468 0,468 0,0 z" />
    </clipPath>
    <clipPath
       id="clipPath4546"
       clipPathUnits="userSpaceOnUse">
      <path
         id="path4548"
         d="M 0,0 720,0 720,468 0,468 0,0 z" />
    </clipPath>
    <clipPath
       id="clipPath4522"
       clipPathUnits="userSpaceOnUse">
      <path
         id="path4524"
         d="M 0,0 720,0 720,468 0,468 0,0 z" />
    </clipPath>
    <clipPath
       id="clipPath4512"
       clipPathUnits="userSpaceOnUse">
      <path
         id="path4514"
         d="m 422.91,294.998 243.454,0 0,61.085 -243.454,0 0,-61.085 z" />
    </clipPath>
    <clipPath
       id="clipPath4500"
       clipPathUnits="userSpaceOnUse">
      <path
         id="path4502"
         d="m 422.91,400.091 243.449,0 0,-153.3 -243.449,0 0,153.3 z" />
    </clipPath>
    <clipPath
       id="clipPath4476"
       clipPathUnits="userSpaceOnUse">
      <path
         id="path4478"
         d="M 0,0 720,0 720,468 0,468 0,0 z" />
    </clipPath>
    <clipPath
       id="clipPath4460"
       clipPathUnits="userSpaceOnUse">
      <path
         id="path4462"
         d="M 0,0 720,0 720,468 0,468 0,0 z" />
    </clipPath>
    <clipPath
       id="clipPath4420"
       clipPathUnits="userSpaceOnUse">
      <path
         id="path4422"
         d="M 0,0 720,0 720,468 0,468 0,0 z" />
    </clipPath>
    <clipPath
       id="clipPath4404"
       clipPathUnits="userSpaceOnUse">
      <path
         id="path4406"
         d="M 0,0 720,0 720,468 0,468 0,0 z" />
    </clipPath>
    <clipPath
       id="clipPath4368"
       clipPathUnits="userSpaceOnUse">
      <path
         id="path4370"
         d="M 0,0 720,0 720,468 0,468 0,0 z" />
    </clipPath>
    <clipPath
       id="clipPath4344"
       clipPathUnits="userSpaceOnUse">
      <path
         id="path4346"
         d="M 0,0 720,0 720,468 0,468 0,0 z" />
    </clipPath>
    <clipPath
       id="clipPath4320"
       clipPathUnits="userSpaceOnUse">
      <path
         id="path4322"
         d="M 0,0 720,0 720,468 0,468 0,0 z" />
    </clipPath>
    <clipPath
       id="clipPath4288"
       clipPathUnits="userSpaceOnUse">
      <path
         id="path4290"
         d="M 0,0 720,0 720,468 0,468 0,0 z" />
    </clipPath>
    <clipPath
       id="clipPath4252"
       clipPathUnits="userSpaceOnUse">
      <path
         id="path4254"
         d="M 0,0 720,0 720,468 0,468 0,0 z" />
    </clipPath>
    <clipPath
       id="clipPath4228"
       clipPathUnits="userSpaceOnUse">
      <path
         id="path4230"
         d="M 0,0 720,0 720,468 0,468 0,0 z" />
    </clipPath>
    <clipPath
       id="clipPath4218"
       clipPathUnits="userSpaceOnUse">
      <path
         id="path4220"
         d="m 57.711,241.97 243.454,0 0,61.085 -243.454,0 0,-61.085 z" />
    </clipPath>
    <clipPath
       id="clipPath4206"
       clipPathUnits="userSpaceOnUse">
      <path
         id="path4208"
         d="m 71.236,347.063 c -7.471,0 -13.525,-6.057 -13.525,-13.527 l 0,0 0,-126.247 c 0,-7.471 6.054,-13.526 13.525,-13.526 l 0,0 216.399,0 c 7.472,0 13.526,6.055 13.526,13.526 l 0,0 0,126.247 c 0,7.47 -6.054,13.527 -13.526,13.527 l 0,0 -216.399,0 z" />
    </clipPath>
    <clipPath
       id="clipPath4194"
       clipPathUnits="userSpaceOnUse">
      <path
         id="path4196"
         d="m 275.532,77.343 42.593,0 0,31.181 -42.593,0 0,-31.181 z" />
    </clipPath>
    <clipPath
       id="clipPath3440"
       clipPathUnits="userSpaceOnUse">
      <path
         id="path3442"
         d="m 275.532,77.343 42.61,0 0,31.181 -42.61,0 0,-31.181 z" />
    </clipPath>
    <clipPath
       id="clipPath2918"
       clipPathUnits="userSpaceOnUse">
      <path
         id="path2920"
         d="m 36.86,77.343 87.116,0 0,31.181 -87.116,0 0,-31.181 z" />
    </clipPath>
    <clipPath
       id="clipPath2876"
       clipPathUnits="userSpaceOnUse">
      <path
         id="path2878"
         d="M 0,0 720,0 720,468 0,468 0,0 z" />
    </clipPath>
    <clipPath
       id="clipPath2856"
       clipPathUnits="userSpaceOnUse">
      <path
         id="path2858"
         d="M 0,0 720,0 720,468 0,468 0,0 z" />
    </clipPath>
    <clipPath
       id="clipPath2846"
       clipPathUnits="userSpaceOnUse">
      <path
         id="path2848"
         d="m 0,29.384 360,0 0,36.027 -360,0 0,-36.027 z" />
    </clipPath>
    <clipPath
       id="clipPath2834"
       clipPathUnits="userSpaceOnUse">
      <path
         id="path2836"
         d="M 0,0 360,0 360,468 0,468 0,0 z" />
    </clipPath>
    <inkscape:perspective
       id="perspective2824"
       inkscape:persp3d-origin="0.5 : 0.33333333 : 1"
       inkscape:vp_z="1 : 0.5 : 1"
       inkscape:vp_y="0 : 1000 : 0"
       inkscape:vp_x="0 : 0.5 : 1"
       sodipodi:type="inkscape:persp3d" />
  </defs>
  <sodipodi:namedview
     id="base"
     pagecolor="#ffffff"
     bordercolor="#666666"
     borderopacity="1.0"
     inkscape:pageopacity="0.0"
     inkscape:pageshadow="2"
     inkscape:zoom="3.0373381"
     inkscape:cx="218.6885"
     inkscape:cy="-9.4357303"
     inkscape:document-units="px"
     inkscape:current-layer="layer1"
     showgrid="false"
     inkscape:window-width="1680"
     inkscape:window-height="1000"
     inkscape:window-x="-8"
     inkscape:window-y="-8"
     inkscape:window-maximized="1" />
  <metadata
     id="metadata7">
    <rdf:RDF>
      <cc:Work
         rdf:about="">
        <dc:format>image/svg+xml</dc:format>
        <dc:type
           rdf:resource="http://purl.org/dc/dcmitype/StillImage" />
        <dc:title></dc:title>
      </cc:Work>
    </rdf:RDF>
  </metadata>
  <g
     inkscape:label="Layer 1"
     inkscape:groupmode="layer"
     id="layer1"
     transform="translate(-290.6381,-380.39627)">
    <g
       id="g2830"
       transform="matrix(1.25,0,0,-1.25,-41.638937,824.86218)">
      <g
         id="g2832"
         clip-path="url(#clipPath2834)">
        <g
           id="g2838"
           transform="matrix(-362.05374,0,0,469.94444,361.13065,-0.8818054)" />
      </g>
    </g>
    <g
       id="g2842"
       transform="matrix(1.25,0,0,-1.25,-41.638937,824.86218)">
      <g
         id="g2844"
         clip-path="url(#clipPath2846)">
        <g
           id="g2850"
           transform="matrix(361.98845,0,0,38.023987,-1.0367889,28.485916)" />
      </g>
    </g>
    <g
       id="g4202"
       transform="matrix(1.25,0,0,-1.25,-41.638937,824.86218)">
      <g
         id="g4204"
         clip-path="url(#clipPath4206)">
        <g
           id="g4210"
           transform="matrix(245.37802,0,0,155.27414,56.662537,192.86678)" />
      </g>
    </g>
    <g
       id="g4214"
       transform="matrix(1.25,0,0,-1.25,-41.638937,824.86218)">
      <g
         id="g4216"
         clip-path="url(#clipPath4218)">
        <g
           id="g4222"
           transform="matrix(245.46603,0,0,63.180008,56.629562,241.0759)" />
      </g>
    </g>
    <g
       id="g4236"
       transform="matrix(1.25,0,0,-1.25,302.25989,402.88678)">
      <path
         d="m 0,0 c 0,-2.08 -0.139,-2.242 -1.178,-2.45 l -0.67,-0.138 c -0.185,-0.069 -0.185,-0.668 0,-0.806 1.317,0.046 2.448,0.069 3.579,0.069 0.67,0 1.547,-0.092 2.379,-0.092 1.41,0 3.144,0.069 4.599,0.576 1.455,0.507 2.724,1.755 2.701,3.881 C 11.387,3.282 9.84,4.483 8.017,4.875 7.809,4.921 7.693,4.99 7.693,5.059 c 0,0.115 0.231,0.208 0.462,0.254 0.715,0.185 2.354,0.947 2.354,2.889 0,1.364 -0.6,2.335 -1.593,2.935 -1.015,0.599 -2.494,0.853 -4.713,0.853 -2.31,0 -3.995,-0.092 -5.751,-0.208 -0.346,-0.023 -0.3,-0.714 -0.092,-0.829 L -1.017,10.86 C -0.046,10.722 0,10.491 0,8.156 L 0,0 z m 3.185,9.728 c 0,1.017 0.024,1.202 1.11,1.202 1.595,0 2.844,-0.994 2.844,-3.005 0,-1.387 -0.74,-2.658 -2.728,-2.658 -1.202,0 -1.226,0.046 -1.226,0.647 l 0,3.814 z m 0,-6.423 c 0,0.925 0,0.948 1.272,0.948 2.219,0 3.375,-1.41 3.375,-3.421 0,-1.872 -0.902,-3.19 -2.612,-3.19 -1.803,0 -2.035,1.133 -2.035,2.936 l 0,2.727 z M 15.017,2.817 c 0,-2.518 0.508,-4.227 1.708,-5.221 1.247,-1.014 2.818,-1.291 4.575,-1.291 1.872,0 3.559,0.577 4.576,1.661 1.268,1.409 1.476,3.396 1.476,5.568 l 0,2.587 c 0,1.871 0.092,3.627 0.346,4.228 0.208,0.485 0.647,0.624 1.248,0.762 l 0.416,0.093 c 0.184,0.186 0.138,0.65 0,0.789 -0.878,-0.046 -1.733,-0.073 -2.587,-0.073 -0.945,0 -1.847,0.027 -3.095,0.073 -0.139,-0.139 -0.185,-0.603 0,-0.789 l 0.624,-0.116 c 0.624,-0.115 1.133,-0.254 1.341,-0.739 0.254,-0.601 0.346,-2.357 0.346,-4.228 l 0,-2.795 c 0,-3.165 -0.901,-5.753 -3.859,-5.753 -3.513,0 -3.814,2.98 -3.814,5.683 l 0,5.337 c 0,2.148 0.139,2.333 1.179,2.518 l 0.554,0.093 c 0.185,0.139 0.185,0.65 0,0.789 -1.109,-0.046 -2.241,-0.073 -3.372,-0.073 -1.108,0 -2.263,0.027 -3.372,0.073 -0.254,-0.139 -0.231,-0.65 -0.046,-0.789 l 0.578,-0.116 c 1.04,-0.208 1.178,-0.347 1.178,-2.495 l 0,-5.776 z M 32.691,0.002 c 0,-2.125 -0.139,-2.287 -1.178,-2.472 l -0.624,-0.115 c -0.185,-0.116 -0.185,-0.674 0,-0.813 1.201,0.046 2.218,0.074 3.372,0.074 1.108,0 2.17,-0.028 3.394,-0.074 0.162,0.139 0.162,0.697 0,0.813 l -0.623,0.115 c -1.04,0.185 -1.179,0.347 -1.179,2.472 l 0,2.842 c 0,0.462 0.047,0.508 0.855,0.508 0.578,0 0.947,-0.185 1.225,-0.809 0.531,-1.224 1.062,-2.356 1.802,-3.58 1.018,-1.667 2.357,-2.427 4.482,-2.427 0.716,0 1.455,0.046 1.825,0.208 0.116,0.138 0.116,0.483 -0.092,0.598 -0.347,0.023 -0.948,0.162 -1.548,0.647 -1.109,0.948 -2.056,2.682 -3.579,5.778 -0.116,0.253 -0.116,0.391 0.115,0.506 1.062,0.532 2.447,1.41 2.447,3.467 0,1.479 -0.692,2.635 -2.031,3.42 -0.878,0.53 -2.564,0.83 -4.53,0.83 -2.194,0 -3.994,-0.092 -5.727,-0.208 -0.277,-0.115 -0.277,-0.691 -0.046,-0.806 l 0.624,-0.092 c 0.97,-0.139 1.016,-0.393 1.016,-2.705 l 0,-8.177 z m 3.162,9.749 c 0,1.109 0.047,1.179 0.995,1.179 1.803,0 3.028,-1.341 3.028,-3.421 0,-1.364 -0.439,-2.103 -0.832,-2.496 -0.439,-0.439 -0.925,-0.647 -1.757,-0.647 -1.364,0 -1.434,0.069 -1.434,0.878 l 0,4.507 z M 50.55,0.002 c 0,-2.148 -0.139,-2.356 -1.178,-2.472 l -1.04,-0.115 c -0.185,-0.14 -0.185,-0.674 0,-0.813 1.617,0.046 2.818,0.074 3.926,0.074 1.039,0 2.194,-0.028 3.695,-0.074 0.162,0.139 0.162,0.673 0,0.813 l -0.924,0.115 c -1.039,0.139 -1.178,0.324 -1.178,2.472 l 0,10.188 c 0,0.601 0.069,0.671 0.624,0.671 l 1.386,0 c 1.733,0 2.056,-1.086 2.449,-2.565 0.115,-0.185 0.739,-0.139 0.855,0.069 -0.046,1.317 0.115,3.187 0.346,3.974 -0.046,0.068 -0.208,0.159 -0.346,0.159 -0.139,0 -0.208,-0.023 -0.301,-0.068 -0.207,-0.487 -0.554,-0.51 -2.079,-0.51 l -8.591,0 c -1.756,0 -1.826,0.093 -1.941,0.486 -0.093,0.069 -0.208,0.092 -0.324,0.092 -0.115,0 -0.231,-0.046 -0.323,-0.116 -0.162,-0.899 -0.277,-2.33 -0.763,-3.924 0.139,-0.301 0.578,-0.347 0.855,-0.208 0.693,1.686 1.179,2.611 2.865,2.611 l 1.433,0 c 0.554,0 0.554,-0.116 0.554,-0.671 l 0,-10.188 z m 12.938,12.843 c -0.878,0 -1.594,-0.647 -1.594,-1.432 0,-0.531 0.3,-0.901 0.693,-1.016 0.554,-0.139 1.27,-0.462 1.27,-1.432 0,-1.086 -1.132,-1.848 -1.963,-2.148 -0.255,-0.162 -0.162,-0.67 0.231,-0.716 1.917,0.439 3.647,1.778 3.647,3.926 0,2.009 -1.338,2.818 -2.284,2.818 M 78.063,0.993 c 0,2.542 -1.824,3.882 -3.255,4.645 l -1.526,0.809 c -1.156,0.601 -2.104,1.571 -2.104,2.634 0,1.156 0.832,2.149 2.358,2.149 1.665,0 2.657,-1.687 3.05,-2.865 0.207,-0.231 0.784,-0.208 0.9,0.069 0,1.548 -0.231,2.796 -0.416,3.303 -0.277,0.046 -0.484,0.092 -0.784,0.184 -0.924,0.277 -1.871,0.369 -2.634,0.369 -3.351,0 -5.382,-1.799 -5.359,-4.41 0,-2.288 1.823,-3.675 3.486,-4.507 1.387,-0.693 3.145,-1.802 3.145,-3.674 0,-1.155 -0.786,-2.334 -2.497,-2.334 -1.964,0 -3.511,2.126 -3.972,3.628 -0.185,0.254 -0.717,0.231 -0.878,-0.069 0,-1.572 0.3,-3.235 0.739,-3.743 0.485,-0.277 1.8,-0.876 3.926,-0.876 3.49,0 5.821,1.846 5.821,4.688 M 87.838,0 c 0,-2.08 -0.138,-2.242 -1.178,-2.45 l -0.67,-0.138 c -0.185,-0.069 -0.185,-0.668 0,-0.806 1.317,0.046 2.448,0.069 3.579,0.069 0.67,0 1.547,-0.092 2.379,-0.092 1.411,0 3.144,0.069 4.6,0.576 1.454,0.507 2.724,1.755 2.7,3.881 -0.023,2.242 -1.569,3.443 -3.393,3.835 -0.208,0.046 -0.323,0.115 -0.323,0.184 0,0.115 0.231,0.208 0.461,0.254 0.715,0.185 2.354,0.947 2.354,2.889 0,1.364 -0.6,2.335 -1.592,2.935 -1.016,0.599 -2.495,0.853 -4.714,0.853 -2.31,0 -3.995,-0.092 -5.751,-0.208 -0.346,-0.023 -0.3,-0.714 -0.092,-0.829 l 0.624,-0.093 c 0.97,-0.138 1.016,-0.369 1.016,-2.704 l 0,-8.156 z m 3.186,9.728 c 0,1.017 0.023,1.202 1.109,1.202 1.596,0 2.844,-0.994 2.844,-3.005 0,-1.387 -0.74,-2.658 -2.728,-2.658 -1.202,0 -1.225,0.046 -1.225,0.647 l 0,3.814 z m 0,-6.423 c 0,0.925 0,0.948 1.271,0.948 2.219,0 3.375,-1.41 3.375,-3.421 0,-1.872 -0.901,-3.19 -2.612,-3.19 -1.803,0 -2.034,1.133 -2.034,2.936 l 0,2.727 z m 15.248,6.654 c 0,0.855 0,0.902 0.761,0.902 l 1.845,0 c 1.13,0 1.825,-0.278 2.266,-0.717 0.301,-0.324 0.624,-1.017 0.878,-1.826 0.231,-0.208 0.763,-0.162 0.855,0.092 -0.115,1.547 -0.277,3.21 -0.3,3.58 -0.3,-0.047 -1.618,-0.07 -3.099,-0.07 l -4.891,0 c -1.108,0.004 -2.241,0.027 -3.329,0.073 -0.228,-0.139 -0.251,-0.673 -0.045,-0.812 l 0.578,-0.116 c 1.041,-0.208 1.18,-0.347 1.18,-2.449 l 0,-8.614 c 0,-2.125 -0.139,-2.264 -1.18,-2.425 l -1.084,-0.162 c -0.185,-0.116 -0.185,-0.671 0,-0.809 1.732,0.046 2.864,0.069 3.972,0.069 l 3,0 c 1.891,0 4.112,-0.023 5.337,-0.069 0.323,0.622 0.878,2.493 0.97,3.694 -0.092,0.278 -0.67,0.37 -0.855,0.116 -1.27,-2.612 -2.056,-2.681 -4.068,-2.681 -1.684,0 -2.122,0.185 -2.422,0.601 -0.277,0.393 -0.369,1.132 -0.369,2.196 l 0,2.75 c 0,0.694 0.023,0.717 0.646,0.717 l 1.591,0 c 1.2,0 1.476,-0.185 1.707,-1.295 l 0.116,-0.578 c 0.162,-0.208 0.743,-0.184 0.859,0.024 -0.047,0.739 -0.062,1.571 -0.062,2.448 0,0.877 0.015,1.709 0.062,2.448 -0.116,0.209 -0.697,0.209 -0.859,0.024 L 110.216,6.492 C 109.985,5.382 109.709,5.22 108.509,5.22 l -1.591,0 c -0.623,0 -0.646,0.047 -0.646,0.694 l 0,4.045 z m 14.162,0 c 0,0.855 0,0.902 0.761,0.902 l 1.845,0 c 1.131,0 1.825,-0.278 2.266,-0.717 0.301,-0.324 0.624,-1.017 0.879,-1.826 0.231,-0.208 0.762,-0.162 0.854,0.092 -0.115,1.547 -0.277,3.21 -0.3,3.58 -0.3,-0.047 -1.618,-0.07 -3.099,-0.07 l -4.891,0 c -1.108,0.004 -2.241,0.027 -3.329,0.073 -0.228,-0.139 -0.251,-0.673 -0.045,-0.812 l 0.578,-0.116 c 1.041,-0.208 1.18,-0.347 1.18,-2.449 l 0,-8.614 c 0,-2.125 -0.139,-2.264 -1.18,-2.425 l -1.084,-0.162 c -0.185,-0.116 -0.185,-0.671 0,-0.809 1.732,0.046 2.864,0.069 3.972,0.069 l 3,0 c 1.891,0 4.112,-0.023 5.337,-0.069 0.323,0.622 0.878,2.493 0.97,3.694 -0.092,0.278 -0.67,0.37 -0.854,0.116 -1.271,-2.612 -2.057,-2.681 -4.069,-2.681 -1.684,0 -2.122,0.185 -2.422,0.601 -0.277,0.393 -0.369,1.132 -0.369,2.196 l 0,2.75 c 0,0.694 0.023,0.717 0.646,0.717 l 1.591,0 c 1.2,0 1.477,-0.185 1.707,-1.295 l 0.116,-0.578 c 0.162,-0.208 0.743,-0.184 0.859,0.024 -0.047,0.739 -0.062,1.571 -0.062,2.448 0,0.877 0.015,1.709 0.062,2.448 -0.116,0.209 -0.697,0.209 -0.859,0.024 l -0.116,-0.578 c -0.23,-1.11 -0.507,-1.272 -1.707,-1.272 l -1.591,0 c -0.623,0 -0.646,0.047 -0.646,0.694 l 0,4.045 z m 19.245,-8.966 c 0,2.542 -1.824,3.882 -3.255,4.645 l -1.526,0.809 c -1.156,0.601 -2.104,1.571 -2.104,2.634 0,1.156 0.832,2.149 2.358,2.149 1.665,0 2.657,-1.687 3.05,-2.865 0.207,-0.231 0.784,-0.208 0.9,0.069 0,1.548 -0.231,2.796 -0.416,3.303 -0.277,0.046 -0.484,0.092 -0.785,0.184 -0.923,0.277 -1.87,0.369 -2.633,0.369 -3.351,0 -5.382,-1.799 -5.359,-4.41 0,-2.288 1.823,-3.675 3.486,-4.507 1.387,-0.693 3.145,-1.802 3.145,-3.674 0,-1.155 -0.786,-2.334 -2.497,-2.334 -1.965,0 -3.511,2.126 -3.973,3.628 -0.184,0.254 -0.716,0.231 -0.877,-0.069 0,-1.572 0.3,-3.235 0.739,-3.743 0.485,-0.277 1.8,-0.876 3.926,-0.876 3.49,0 5.821,1.846 5.821,4.688"
         style="fill:#e3173e;fill-opacity:1;fill-rule:nonzero;stroke:none"
         id="path4238" />
    </g>
    <g
       id="g4240"
       transform="matrix(1.25,0,0,-1.25,290.9506,413.49315)">
      <path
         d="M 0,0 157,0"
         style="fill:none;stroke:#e3173e;stroke-width:0.5;stroke-linecap:round;stroke-linejoin:miter;stroke-miterlimit:4;stroke-opacity:1;stroke-dasharray:none"
         id="path4242" />
    </g>
    <g
       id="g4244"
       transform="matrix(1.25,0,0,-1.25,290.9506,380.70877)">
      <path
         d="M 0,0 157,0"
         style="fill:none;stroke:#e3173e;stroke-width:0.5;stroke-linecap:round;stroke-linejoin:miter;stroke-miterlimit:4;stroke-opacity:1;stroke-dasharray:none"
         id="path4246" />
    </g>
    <text
       id="text4492"
       x="477.8779"
       y="392.53439"
       style="font-size:15px">
      <tspan
         style="font-size:6.25px;font-variant:normal;font-weight:normal;font-stretch:normal;writing-mode:lr-tb;fill:#e3173e;fill-opacity:1;fill-rule:nonzero;stroke:none;font-family:Geneva;-inkscape-font-specification:Geneva"
         x="477.8779"
         y="392.53439"
         id="tspan4494">®</tspan>
    </text>
    <g
       id="g4496"
       transform="matrix(1.25,0,0,-1.25,-41.638937,824.86218)">
      <g
         id="g4498"
         clip-path="url(#clipPath4500)">
        <g
           id="g4504"
           transform="matrix(245.37802,0,0,155.27414,421.8614,245.89516)" />
      </g>
    </g>
    <g
       id="g4508"
       transform="matrix(1.25,0,0,-1.25,-41.638937,824.86218)">
      <g
         id="g4510"
         clip-path="url(#clipPath4512)">
        <g
           id="g4516"
           transform="matrix(245.46603,0,0,63.180008,421.82846,294.10428)" />
      </g>
    </g>
    <g
       id="g4790"
       transform="matrix(1.25,0,0,-1.25,-41.638937,824.86218)">
      <g
         id="g4792"
         clip-path="url(#clipPath4794)">
        <g
           id="g4798"
           transform="matrix(245.46603,0,0,155.37601,421.88571,92.648468)" />
      </g>
    </g>
  </g>
</svg>
