<?xml version="1.0" encoding="utf-8"?>
<!-- Generator: Adobe Illustrator 23.0.5, SVG Export Plug-In . SVG Version: 6.00 Build 0)  -->
<svg version="1.1" id="Layer_1" xmlns="http://www.w3.org/2000/svg" xmlns:xlink="http://www.w3.org/1999/xlink" x="0px" y="0px"
	 viewBox="0 0 1245.9 524.8" style="enable-background:new 0 0 1245.9 524.8;" xml:space="preserve">
<style type="text/css">
	.st0{fill:#363435;}
</style>
<g>
	<g>
		<path class="st0" d="M0,378.8c2-0.3,3.9-0.8,5.9-0.8c26.8-0.1,53.7-0.1,80.5,0.1c2.9,0,6.2,1.1,8.6,2.8
			c30.5,20.6,60.8,41.3,91.2,62c1.3,0.9,2.8,1.7,4.9,3.1c0-22.9,0-45.1,0-67.7c31.7,0,62.7,0,94.1,0c0,48.5,0,97.1,0,146.2
			c-1.8,0.1-3.6,0.2-5.3,0.2c-27.5,0-55,0.1-82.5-0.1c-2.9,0-6.2-1.1-8.6-2.7c-30.9-21.1-61.7-42.4-92.5-63.7c-1.4-1-3-1.8-5.4-3.2
			c0,23.8,0,46.5,0,69.9c-30.7,0-60.8,0-90.9,0C0,476.1,0,427.4,0,378.8z"/>
		<path class="st0" d="M1179.6,0.1c-101.8,101.8-203.3,203.3-304.4,304.4c-47.8-47.9-96.3-96.4-145.1-145.2c0.6-0.7,1.8-2,3.1-3.3
			C783.6,105.5,834.2,55,884.7,4.3c3.1-3.1,6.1-4.3,10.5-4.3c93,0.1,185.9,0.1,278.9,0.1C1175.9,0.1,1177.7,0.1,1179.6,0.1z"/>
		<path class="st0" d="M400.9,3.3C448.6,51,497,99.4,545.7,148.1c-0.8,0.9-1.9,2.2-3,3.3c-51,51-102,102-153.1,152.9
			c-1.8,1.8-4.8,3.2-7.2,3.2c-94.8,0.2-189.6,0.1-284.4,0.1c-0.8,0-1.7,0-1.4,0C197.7,206.5,299.4,104.8,400.9,3.3z"/>
		<path class="st0" d="M435.1,0.1c3.2,0,4.8,0,6.4,0c29.2,0,58.3-0.1,87.5,0.1c2.3,0,5.3,1,6.9,2.6
			c100.8,100.6,201.6,201.4,302.3,302.1c0.6,0.6,1.1,1.2,2.2,2.3c-1.8,0.2-3,0.4-4.1,0.4c-30.8,0-61.7,0.1-92.5-0.1
			c-2.5,0-5.5-1.3-7.3-3.1C637.5,204.7,538.5,104.8,439.5,4.9C438.3,3.7,437.3,2.5,435.1,0.1z"/>
		<path class="st0" d="M1245.9,524.4c-2.2,0.1-3.8,0.2-5.4,0.2c-27.5,0-55,0-82.5,0.1c-3.5,0-5.9-0.9-7.8-4
			c-3.5-5.7-7.2-11.2-11.3-16.5c-1.2-1.6-3.7-3-5.6-3c-28.8-0.2-57.7-0.2-86.5,0c-1.8,0-4.1,1.3-5.2,2.8c-4.4,5.8-8.3,12.1-12.6,18
			c-0.9,1.2-2.8,2.5-4.2,2.5c-29.8,0.1-59.6,0.1-90.2,0.1c0.8-1.5,1.2-2.6,1.8-3.6c31.7-46.6,63.5-93.2,95.4-139.7
			c1.2-1.8,4.2-3.3,6.4-3.4c34.8-0.2,69.6-0.2,104.5,0c1.8,0,4.2,1.1,5.2,2.6c32.2,46.9,64.2,93.9,96.3,140.9
			C1244.7,522.2,1245.1,523.1,1245.9,524.4z M1090.2,432.9c-9.5,13.9-18.4,27-27.8,40.6c18.9,0,36.6,0,54.7,0
			c-0.4-1-0.4-1.7-0.8-2.1C1107.9,458.9,1099.4,446.4,1090.2,432.9z"/>
		<path class="st0" d="M611.4,449c8.4-11.6,16.4-22.7,24.3-33.7c8.3-11.5,16.5-23,24.9-34.4c1-1.4,3-2.9,4.5-2.9
			c34.1-0.2,68.3-0.1,103.5-0.1c-2.9,4-5.2,7.5-7.7,10.9c-32.5,44-65.1,88-97.5,132.1c-2,2.7-3.9,3.9-7.3,3.9
			c-29.8-0.1-59.6-0.1-89.5,0c-3.2,0-5.2-0.9-7.1-3.5c-33.9-46.1-68-92.1-101.9-138.2c-1-1.4-2-2.9-3.3-5c2.3-0.1,3.9-0.2,5.5-0.2
			c31.7,0,63.3,0.1,95-0.1c4,0,6.3,1.3,8.6,4.5c14.6,20.6,29.5,41.1,44.2,61.6C608.6,445.4,609.7,446.8,611.4,449z"/>
		<path class="st0" d="M426.4,524.5c-34.2,0-67.8,0-101.9,0c0-48.8,0-97.5,0-146.4c33.9,0,67.8,0,101.9,0
			C426.4,427,426.4,475.5,426.4,524.5z"/>
		<path class="st0" d="M896.8,378.2c0,48.9,0,97.4,0,146.2c-33.9,0-67.7,0-101.8,0c0-48.7,0-97.3,0-146.2
			C828.9,378.2,862.6,378.2,896.8,378.2z"/>
		<g>
			<path class="st0" d="M1198.5,373.9c-11.3,0-20.5,9.2-20.5,20.5c0,11.3,9.2,20.5,20.5,20.5c11.3,0,20.5-9.2,20.5-20.5
				C1218.9,383,1209.8,373.9,1198.5,373.9z M1198.5,412c-9.8,0-17.7-7.9-17.7-17.7c0-9.8,7.9-17.7,17.7-17.7
				c9.8,0,17.7,7.9,17.7,17.7C1216.2,404.1,1208.2,412,1198.5,412z"/>
			<path class="st0" d="M1201.2,394.3L1201.2,394.3c2.2-0.8,4-2.7,4-5.5c0-1.6-0.6-3.1-1.7-4c-1.3-1.2-3.2-1.7-6.1-1.7
				c-1.9,0-3.9,0.2-5.2,0.4v20.8h2.7v-9.1h2.6c2.5,0.1,3.6,1.2,4.2,4.1c0.6,2.6,1.1,4.4,1.4,5h2.8c-0.4-0.8-0.9-2.9-1.6-5.8
				C1203.8,396.4,1202.9,394.9,1201.2,394.3z M1197.7,393.1h-2.8v-7.7c0.4-0.1,1.4-0.3,2.7-0.3c2.9,0,4.9,1.2,4.9,3.9
				C1202.5,391.5,1200.6,393.1,1197.7,393.1z"/>
		</g>
	</g>
</g>
</svg>
